<svg width="39" height="38" viewBox="0 0 39 38" fill="none" xmlns="http://www.w3.org/2000/svg">
<g filter="url(#filter0_d_5102_505)">
<path d="M12.9801 20.7724C12.7722 20.5513 12.6382 20.2709 12.5968 19.9703C12.5553 19.6696 12.6083 19.3635 12.7485 19.0943C12.8948 18.8208 13.1192 18.5975 13.3946 18.4536L15.2204 17.5619C15.6775 17.3347 16.0755 17.0044 16.383 16.597C16.6905 16.1895 16.899 15.7162 16.9922 15.2144L17.3469 13.1882C17.4103 12.8871 17.5667 12.6135 17.794 12.4059C18.0212 12.1983 18.3079 12.0673 18.6135 12.0312C18.9192 11.9952 19.2285 12.0559 19.4978 12.2049C19.7671 12.3539 19.9828 12.5836 20.1146 12.8617L21.0082 14.6898C21.2352 15.1471 21.5656 15.5453 21.9731 15.853C22.3806 16.1607 22.8541 16.3694 23.3562 16.4626L25.3789 16.8205C25.6781 16.8819 25.9507 17.0349 26.1589 17.2584C26.367 17.4819 26.5003 17.7648 26.5402 18.0675C26.5801 18.3703 26.5246 18.678 26.3815 18.9478C26.2383 19.2176 26.0146 19.436 25.7415 19.5728L23.8801 20.4837C23.4359 20.7091 23.0487 21.0324 22.7475 21.4291C22.4464 21.8258 22.2392 22.2857 22.1415 22.774L21.7908 24.7982C21.7292 25.0973 21.5759 25.3698 21.3524 25.5779C21.1288 25.7859 20.8461 25.9192 20.5433 25.9593C20.2405 25.9993 19.9328 25.9441 19.6629 25.8014C19.3929 25.6586 19.1741 25.4353 19.0368 25.1626L18.1477 23.3353C17.9199 22.8756 17.5873 22.4758 17.1768 22.168C16.7663 21.8603 16.2893 21.6531 15.7841 21.5633L13.7573 21.2059C13.4589 21.1456 13.1874 20.9933 12.9801 20.7724Z" fill="#358BB9"/>
</g>
<defs>
<filter id="filter0_d_5102_505" x="0.583008" y="0.0212402" width="37.9697" height="37.9507" filterUnits="userSpaceOnUse" color-interpolation-filters="sRGB">
<feFlood flood-opacity="0" result="BackgroundImageFix"/>
<feColorMatrix in="SourceAlpha" type="matrix" values="0 0 0 0 0 0 0 0 0 0 0 0 0 0 0 0 0 0 127 0" result="hardAlpha"/>
<feOffset/>
<feGaussianBlur stdDeviation="6"/>
<feComposite in2="hardAlpha" operator="out"/>
<feColorMatrix type="matrix" values="0 0 0 0 0.532812 0 0 0 0 0.184062 0 0 0 0 0.590937 0 0 0 0.35 0"/>
<feBlend mode="normal" in2="BackgroundImageFix" result="effect1_dropShadow_5102_505"/>
<feBlend mode="normal" in="SourceGraphic" in2="effect1_dropShadow_5102_505" result="shape"/>
</filter>
</defs>
</svg>
